<svg width="30" height="24" viewBox="0 0 30 24" fill="none" xmlns="http://www.w3.org/2000/svg">
<rect x="7" y="5" width="2" height="16" fill="white"/>
<rect x="16" y="12" width="2" height="16" transform="rotate(90 16 12)" fill="white"/>
<path d="M19.8203 4V22H17.6523V4H19.8203ZM19.3047 15.1797L18.4023 15.1445C18.4102 14.2773 18.5391 13.4766 18.7891 12.7422C19.0391 12 19.3906 11.3555 19.8438 10.8086C20.2969 10.2617 20.8359 9.83984 21.4609 9.54297C22.0938 9.23828 22.793 9.08594 23.5586 9.08594C24.1836 9.08594 24.7461 9.17188 25.2461 9.34375C25.7461 9.50781 26.1719 9.77344 26.5234 10.1406C26.8828 10.5078 27.1562 10.9844 27.3438 11.5703C27.5312 12.1484 27.625 12.8555 27.625 13.6914V22H25.4453V13.668C25.4453 13.0039 25.3477 12.4727 25.1523 12.0742C24.957 11.668 24.6719 11.375 24.2969 11.1953C23.9219 11.0078 23.4609 10.9141 22.9141 10.9141C22.375 10.9141 21.8828 11.0273 21.4375 11.2539C21 11.4805 20.6211 11.793 20.3008 12.1914C19.9883 12.5898 19.7422 13.0469 19.5625 13.5625C19.3906 14.0703 19.3047 14.6094 19.3047 15.1797Z" fill="white"/>
</svg>
