<svg width="34" height="23" viewBox="0 0 34 23" fill="none" xmlns="http://www.w3.org/2000/svg">
<path d="M3.82031 4V22H1.65234V4H3.82031ZM3.30469 15.1797L2.40234 15.1445C2.41016 14.2773 2.53906 13.4766 2.78906 12.7422C3.03906 12 3.39062 11.3555 3.84375 10.8086C4.29688 10.2617 4.83594 9.83984 5.46094 9.54297C6.09375 9.23828 6.79297 9.08594 7.55859 9.08594C8.18359 9.08594 8.74609 9.17188 9.24609 9.34375C9.74609 9.50781 10.1719 9.77344 10.5234 10.1406C10.8828 10.5078 11.1562 10.9844 11.3438 11.5703C11.5312 12.1484 11.625 12.8555 11.625 13.6914V22H9.44531V13.668C9.44531 13.0039 9.34766 12.4727 9.15234 12.0742C8.95703 11.668 8.67188 11.375 8.29688 11.1953C7.92188 11.0078 7.46094 10.9141 6.91406 10.9141C6.375 10.9141 5.88281 11.0273 5.4375 11.2539C5 11.4805 4.62109 11.793 4.30078 12.1914C3.98828 12.5898 3.74219 13.0469 3.5625 13.5625C3.39062 14.0703 3.30469 14.6094 3.30469 15.1797Z" fill="white"/>
<rect x="17.8788" y="5" width="16.1212" height="2.83333" fill="white"/>
<rect x="15" y="5" width="1.72727" height="2.83333" fill="white"/>
<rect x="15" y="9.72217" width="1.72727" height="2.83333" fill="white"/>
<rect x="15" y="14.4445" width="1.72727" height="2.83333" fill="white"/>
<rect x="15" y="19.1666" width="1.72727" height="2.83333" fill="white"/>
<rect x="17.8788" y="9.72217" width="16.1212" height="2.83333" fill="white"/>
<rect x="17.8788" y="14.4445" width="16.1212" height="2.83333" fill="white"/>
<rect x="17.8788" y="19.1666" width="16.1212" height="2.83333" fill="white"/>
</svg>
